<mxfile host="app.diagrams.net" modified="2023-06-17T19:52:48.316Z" agent="Mozilla/5.0 (Windows NT 10.0; Win64; x64) AppleWebKit/537.36 (KHTML, like Gecko) Chrome/114.0.0.0 Safari/537.36" version="21.4.0" etag="fH5BAEeP1aO81kw8NlKg" type="github">
  <diagram name="Page-1" id="Un62vdYVXbTe91Y6Ss48">
    <mxGraphModel>
      <root>
        <mxCell id="0" />
        <mxCell id="1" parent="0" />
      </root>
    </mxGraphModel>
  </diagram>
</mxfile>
